<svg width="16" height="16" viewBox="0 0 16 16" fill="none" xmlns="http://www.w3.org/2000/svg">
<path d="M9.17302 15.528C9.33805 15.3405 9.42183 15.0951 9.40596 14.8458C9.39008 14.5965 9.27584 14.3637 9.08836 14.1987L3.44569 9.23332C3.42051 9.21077 3.40274 9.18113 3.39473 9.14829C3.38673 9.11545 3.38885 9.08095 3.40083 9.04935C3.41281 9.01774 3.43408 8.9905 3.46184 8.97122C3.4896 8.95193 3.52255 8.94151 3.55636 8.94132H15.0577C15.3073 8.94132 15.5468 8.84214 15.7233 8.66561C15.8998 8.48907 15.999 8.24964 15.999 7.99998C15.999 7.75033 15.8998 7.5109 15.7233 7.33436C15.5468 7.15783 15.3073 7.05865 15.0577 7.05865L3.55636 7.05865C3.52255 7.05846 3.4896 7.04804 3.46184 7.02875C3.43408 7.00947 3.41281 6.98223 3.40083 6.95062C3.38885 6.91902 3.38673 6.88452 3.39473 6.85168C3.40274 6.81884 3.42051 6.7892 3.44569 6.76665L9.08836 1.79998C9.18629 1.7198 9.26705 1.6207 9.32583 1.5086C9.3846 1.39651 9.42019 1.27372 9.43046 1.14756C9.44072 1.02141 9.42546 0.894482 9.38558 0.774358C9.34571 0.654234 9.28203 0.543378 9.19836 0.44841C9.11468 0.353443 9.01273 0.276312 8.89858 0.221623C8.78444 0.166934 8.66044 0.135809 8.534 0.130107C8.40756 0.124405 8.28126 0.144242 8.16266 0.188434C8.04405 0.232627 7.93557 0.300268 7.84369 0.387318L0.533022 6.82198C0.365509 6.96914 0.231308 7.15034 0.139374 7.35347C0.0474386 7.55661 -0.000114441 7.77701 -0.000114441 7.99998C-0.000114441 8.22296 0.0474386 8.44336 0.139374 8.6465C0.231308 8.84963 0.365509 9.03083 0.533022 9.17798L7.84436 15.6127C7.93715 15.6943 8.04513 15.757 8.16213 15.7969C8.27912 15.8369 8.40285 15.8534 8.52623 15.8455C8.64961 15.8377 8.77023 15.8056 8.88121 15.7511C8.99219 15.6966 9.09135 15.6208 9.17302 15.528Z" fill="#24366B"/>
</svg>
