<svg width="18" height="18" viewBox="0 0 18 18" fill="none" xmlns="http://www.w3.org/2000/svg">
<path d="M17.5602 15.4434L14.0765 11.9596C15.1372 10.3718 15.5694 8.44614 15.289 6.55727C15.0086 4.66841 14.0356 2.95137 12.5593 1.74015C11.0831 0.528937 9.20903 -0.089854 7.30178 0.00414362C5.39452 0.0981412 3.59041 0.898207 2.24038 2.24872C0.890352 3.59922 0.0909248 5.40361 -0.00239853 7.3109C-0.0957219 9.21819 0.523732 11.092 1.73547 12.5679C2.94721 14.0437 4.66459 15.0161 6.55356 15.2958C8.44252 15.5756 10.368 15.1427 11.9555 14.0814L15.4392 17.5644C15.7229 17.8411 16.1035 17.996 16.4997 17.996C16.896 17.996 17.2766 17.8411 17.5602 17.5644C17.8414 17.2831 17.9994 16.9016 17.9994 16.5039C17.9994 16.1061 17.8414 15.7247 17.5602 15.4434ZM7.68724 2.25389C8.76268 2.25389 9.81396 2.57279 10.7082 3.17027C11.6023 3.76775 12.2993 4.61698 12.7108 5.61055C13.1224 6.60412 13.2301 7.69742 13.0203 8.75219C12.8105 9.80697 12.2926 10.7758 11.5321 11.5363C10.7717 12.2967 9.80282 12.8146 8.74805 13.0244C7.69327 13.2342 6.59997 13.1265 5.6064 12.715C4.61283 12.3034 3.76361 11.6065 3.16613 10.7123C2.56865 9.81811 2.24974 8.76683 2.24974 7.69139C2.25133 6.24976 2.82472 4.86764 3.8441 3.84825C4.86349 2.82887 6.24562 2.25548 7.68724 2.25389Z" fill="#24366B"/>
</svg>
