<svg width="78" height="78" viewBox="0 0 78 78" fill="none" xmlns="http://www.w3.org/2000/svg">
<path d="M74.7266 33.5L68.6 28.5733C68.1236 28.1893 67.7517 27.6915 67.5187 27.1258C67.2856 26.5601 67.1989 25.9447 67.2666 25.3366L68.1166 17.52C68.2313 16.482 68.1112 15.4316 67.7653 14.4463C67.4194 13.461 66.8566 12.5659 66.1184 11.8274C65.3801 11.0888 64.4853 10.5256 63.5002 10.1793C62.515 9.83297 61.4646 9.71246 60.4266 9.82664L52.6 10.6666C51.9919 10.734 51.3767 10.6472 50.811 10.4142C50.2453 10.1811 49.7475 9.80943 49.3633 9.33331L44.4366 3.20997C43.7617 2.43009 42.9268 1.80454 41.9888 1.3758C41.0507 0.947061 40.0314 0.725159 39 0.725159C37.9686 0.725159 36.9492 0.947061 36.0112 1.3758C35.0731 1.80454 34.2383 2.43009 33.5633 3.20997L28.6366 9.33331C28.2539 9.8111 27.7562 10.184 27.1902 10.4172C26.6241 10.6504 26.0082 10.7362 25.4 10.6666L17.5833 9.82664C16.5453 9.71201 15.4949 9.83207 14.5096 10.1779C13.5243 10.5238 12.6293 11.0867 11.8907 11.8249C11.1521 12.5632 10.5889 13.4579 10.2426 14.4431C9.89629 15.4283 9.77578 16.4786 9.88996 17.5166L10.74 25.3333C10.8092 25.9415 10.7233 26.5573 10.4901 27.1233C10.2569 27.6893 9.88418 28.187 9.40663 28.57L3.27329 33.5C2.45976 34.1534 1.80325 34.9811 1.35216 35.9221C0.901064 36.863 0.666885 37.8932 0.666885 38.9366C0.666885 39.9801 0.901064 41.0103 1.35216 41.9512C1.80325 42.8921 2.45976 43.7198 3.27329 44.3733L9.39996 49.3C9.87728 49.6831 10.2499 50.1808 10.483 50.7468C10.7161 51.3127 10.8022 51.9285 10.7333 52.5366L9.88329 60.3533C9.76866 61.3913 9.88872 62.4417 10.2346 63.427C10.5805 64.4123 11.1433 65.3073 11.8816 66.0459C12.6198 66.7845 13.5146 67.3477 14.4997 67.694C15.4849 68.0403 16.5353 68.1608 17.5733 68.0466L25.3933 67.1966C26.0014 67.1289 26.6167 67.2156 27.1824 67.4487C27.7481 67.6817 28.246 68.0536 28.63 68.53L33.5633 74.6666C34.2168 75.4802 35.0445 76.1367 35.9854 76.5878C36.9263 77.0389 37.9565 77.273 39 77.273C40.0434 77.273 41.0736 77.0389 42.0145 76.5878C42.9555 76.1367 43.7832 75.4802 44.4366 74.6666L49.3633 68.54C49.7475 68.0639 50.2453 67.6921 50.811 67.4591C51.3767 67.2261 51.9919 67.1393 52.6 67.2066L60.4166 68.0566C61.4546 68.1713 62.505 68.0512 63.4903 67.7053C64.4757 67.3595 65.3707 66.7966 66.1092 66.0584C66.8478 65.3201 67.411 64.4254 67.7573 63.4402C68.1036 62.455 68.2241 61.4046 68.11 60.3666L67.26 52.5466C67.1904 51.9384 67.2762 51.3225 67.5094 50.7564C67.7426 50.1904 68.1155 49.6927 68.5933 49.31L74.72 44.3833C75.5335 43.7298 76.19 42.9021 76.6411 41.9612C77.0922 41.0203 77.3264 39.9901 77.3264 38.9466C77.3264 37.9032 77.0922 36.873 76.6411 35.9321C76.19 34.9911 75.5335 34.1634 74.72 33.51L74.7266 33.5ZM40.3333 49.16C39.8212 49.8269 39.1736 50.3778 38.4331 50.7762C37.6926 51.1747 36.876 51.4116 36.0373 51.4714C35.1985 51.5313 34.3566 51.4127 33.5671 51.1234C32.7775 50.8342 32.0582 50.3808 31.4566 49.7933L23.31 41.6666C22.9916 41.3591 22.7377 40.9913 22.563 40.5847C22.3883 40.178 22.2963 39.7406 22.2925 39.298C22.2886 38.8554 22.373 38.4164 22.5406 38.0068C22.7082 37.5971 22.9557 37.225 23.2686 36.912C23.5816 36.599 23.9538 36.3515 24.3634 36.1839C24.7731 36.0163 25.212 35.932 25.6546 35.9358C26.0972 35.9396 26.5346 36.0316 26.9413 36.2063C27.348 36.381 27.7158 36.6349 28.0233 36.9533L35.5266 44.4566L48.5566 27.0866C49.0871 26.3794 49.8767 25.9118 50.7519 25.7868C51.1852 25.7249 51.6265 25.749 52.0506 25.8576C52.4746 25.9662 52.8731 26.1573 53.2233 26.42C53.5735 26.6826 53.8685 27.0117 54.0915 27.3883C54.3146 27.765 54.4612 28.1819 54.5231 28.6152C54.585 29.0486 54.561 29.4899 54.4523 29.9139C54.3437 30.338 54.1526 30.7364 53.89 31.0866L40.3333 49.16Z" fill="#22BA4C"/>
</svg>
